<svg xmlns="http://www.w3.org/2000/svg" width="62.92" height="35" viewBox="0 0 62.92 35"><rect class="svg__rect" x="0" y="0" width="62.92" height="35" fill="#CFC81E"/><rect class="svg__rect" x="62.92" y="0" width="0" height="35" fill="#389AD5"/><path class="svg__text" d="M17.33 22L14.22 22L14.22 13.47L17.14 13.47Q18.59 13.47 19.34 14.05Q20.10 14.63 20.10 15.78L20.10 15.78Q20.10 16.36 19.78 16.83Q19.47 17.30 18.86 17.56L18.86 17.56Q19.55 17.75 19.93 18.26Q20.31 18.78 20.31 19.51L20.31 19.51Q20.31 20.71 19.53 21.36Q18.76 22 17.33 22L17.33 22ZM15.70 18.15L15.70 20.82L17.35 20.82Q18.04 20.82 18.44 20.47Q18.83 20.13 18.83 19.51L18.83 19.51Q18.83 18.18 17.47 18.15L17.47 18.15L15.70 18.15ZM15.70 14.66L15.70 17.06L17.15 17.06Q17.84 17.06 18.23 16.75Q18.62 16.43 18.62 15.86L18.62 15.86Q18.62 15.23 18.26 14.95Q17.90 14.66 17.14 14.66L17.14 14.66L15.70 14.66ZM30.35 22L24.78 22L24.78 13.47L30.31 13.47L30.31 14.66L26.26 14.66L26.26 17.02L29.76 17.02L29.76 18.19L26.26 18.19L26.26 20.82L30.35 20.82L30.35 22ZM36.23 14.66L33.59 14.66L33.59 13.47L40.36 13.47L40.36 14.66L37.70 14.66L37.70 22L36.23 22L36.23 14.66ZM44.90 22L43.36 22L46.58 13.47L47.91 13.47L51.14 22L49.59 22L48.89 20.01L45.59 20.01L44.90 22ZM47.24 15.28L46.00 18.82L48.48 18.82L47.24 15.28Z" fill="#FFFFFF"/><path class="svg__text" d="" fill="#FFFFFF" x="75.92"/></svg>